<svg width="125" height="154" viewBox="0 0 125 154" fill="none" xmlns="http://www.w3.org/2000/svg">
<path d="M75.2135 3.42234C74.8777 2.44175 74.2447 1.60255 73.3814 0.986838C72.5037 0.361999 71.463 0.0244944 70.3743 0.00169008C69.2857 -0.0256751 68.2258 0.279903 67.3193 0.872816C66.4177 1.46117 65.7462 2.29125 65.3866 3.23991L42.3804 61.6646L55.1472 61.5369L70.053 24.5893L81.851 61.9656H95.7689L75.2135 3.42234Z" fill="#08361F"/>
<path d="M70.3618 0.501953H70.3638C71.3548 0.522711 72.2977 0.828694 73.0913 1.39355C73.8722 1.95055 74.4399 2.70536 74.7407 3.58398L74.7417 3.58789L95.064 61.4658H82.2173L70.5298 24.4385L70.1108 23.1104L69.5894 24.4023L54.8071 61.04L43.1167 61.1572L65.8521 3.42285L65.854 3.41699C66.1746 2.57146 66.776 1.82474 67.5923 1.29199L67.5933 1.29102C68.4155 0.753226 69.3757 0.477167 70.3618 0.501953Z" stroke="#7F7F7F" stroke-opacity="0.4" style="mix-blend-mode:luminosity"/>
<path d="M70.3618 0.501953H70.3638C71.3548 0.522711 72.2977 0.828694 73.0913 1.39355C73.8722 1.95055 74.4399 2.70536 74.7407 3.58398L74.7417 3.58789L95.064 61.4658H82.2173L70.5298 24.4385L70.1108 23.1104L69.5894 24.4023L54.8071 61.04L43.1167 61.1572L65.8521 3.42285L65.854 3.41699C66.1746 2.57146 66.776 1.82474 67.5923 1.29199L67.5933 1.29102C68.4155 0.753226 69.3757 0.477167 70.3618 0.501953Z" stroke="#3D3D3D" stroke-opacity="0.5" style="mix-blend-mode:overlay"/>
<path d="M37.3012 78.1885L11.8971 136.563C9.69093 141.63 11.3503 147.495 15.9353 150.825L19.1342 153.146L50.0776 78.1885H37.3012Z" fill="#08361F"/>
<path d="M49.3301 78.6885L18.9131 152.368L16.2285 150.42H16.2295C11.8276 147.223 10.2463 141.607 12.3555 136.763L37.6289 78.6885H49.3301Z" stroke="#7F7F7F" stroke-opacity="0.4" style="mix-blend-mode:luminosity"/>
<path d="M49.3301 78.6885L18.9131 152.368L16.2285 150.42H16.2295C11.8276 147.223 10.2463 141.607 12.3555 136.763L37.6289 78.6885H49.3301Z" stroke="#3D3D3D" stroke-opacity="0.5" style="mix-blend-mode:overlay"/>
<path d="M105.236 91.8346L98.8142 74.4395L95.9511 75.3927C94.9679 75.7211 94.1574 76.0084 93.3277 76.3003C92.1383 76.7199 90.9105 77.1532 89.0689 77.7415L86.0378 78.7084L99.7159 111.583L103.653 105.554C106.353 101.422 106.929 96.4229 105.236 91.8346Z" fill="#08361F"/>
<path d="M104.767 92.0078C106.354 96.3073 105.881 100.977 103.473 104.902L103.235 105.28L99.8142 110.518L86.7087 79.0186L89.2205 78.2178H89.2214C90.1457 77.9225 90.9161 77.6658 91.6042 77.4307L93.4939 76.7715C93.9092 76.6254 94.3183 76.4808 94.7458 76.3321L96.1091 75.8672L98.5125 75.0664L104.767 92.0078Z" stroke="#7F7F7F" stroke-opacity="0.4" style="mix-blend-mode:luminosity"/>
<path d="M104.767 92.0078C106.354 96.3073 105.881 100.977 103.473 104.902L103.235 105.28L99.8142 110.518L86.7087 79.0186L89.2205 78.2178H89.2214C90.1457 77.9225 90.9161 77.6658 91.6042 77.4307L93.4939 76.7715C93.9092 76.6254 94.3183 76.4808 94.7458 76.3321L96.1091 75.8672L98.5125 75.0664L104.767 92.0078Z" stroke="#3D3D3D" stroke-opacity="0.5" style="mix-blend-mode:overlay"/>
<path d="M109.236 21.3282V24.2106C109.231 25.0042 108.828 87.0594 108.708 104.309C108.675 108.783 107.61 115.268 105.884 118.374C101.812 125.69 95.8216 130.068 87.0306 132.162C77.7409 134.374 69.4487 133.238 63.6791 128.956C58.2022 124.892 55.3102 118.092 55.3102 109.285C55.3102 97.0021 63.9669 87.0822 79.6688 81.3492C86.8628 78.7632 98.186 74.8135 99.879 74.4577L101.361 74.3027L105.246 67.6164C105.936 66.4306 105.922 65.0213 105.202 63.8491C104.483 62.677 103.203 61.9701 101.778 61.9564L5.97424 61.0396H5.87832C4.76566 61.0625 3.68657 61.3772 2.75136 61.9564C1.82095 62.5311 1.07278 63.3338 0.593184 64.287C0.113588 65.2402 -0.0830447 66.2938 0.0320581 67.3473C0.142365 68.3963 0.559613 69.3952 1.23105 70.2344L24.5394 97.8413L27.9589 90.5074C29.2346 87.7709 28.7214 84.5418 26.6448 82.2887L17.7579 72.6334H63.7415C58.1302 77.2991 53.9338 82.0151 49.6318 88.3C46.1931 93.2485 43.963 98.7261 42.999 104.61C42.692 106.575 42.5386 108.578 42.5482 110.552C42.5482 136.13 60.2165 148.18 77.7313 148.777C78.2061 148.795 78.6809 148.8 79.1605 148.8C98.8191 148.8 119.293 135.012 121.331 107.985L121.341 21.3282H109.236Z" fill="#981B21"/>
<path d="M43.0479 110.55C43.0384 108.602 43.1902 106.627 43.4932 104.687L43.4922 104.686C44.4444 98.8783 46.6461 93.4719 50.042 88.585L50.0439 88.5821C54.3225 82.3314 58.4893 77.6509 64.0615 73.0176L65.125 72.1338H16.6182L17.3896 72.9717L26.2773 82.627V82.628C28.2185 84.7343 28.6944 87.7463 27.5059 90.2959L24.416 96.92L1.61719 69.917C1.006 69.1512 0.629063 68.2437 0.529297 67.295V67.293L0.50293 66.9346C0.473077 66.0997 0.657428 65.2722 1.04004 64.5118C1.47616 63.645 2.15854 62.9101 3.01367 62.3819H3.01465C3.8692 61.8526 4.85669 61.5619 5.87793 61.5391V61.5401H5.96973L101.773 62.4561C103.033 62.4682 104.151 63.0916 104.776 64.1104C105.399 65.1252 105.411 66.3374 104.813 67.3643V67.3653L101.056 73.8311L99.8271 73.96L99.8018 73.9629L99.7764 73.9688C99.3205 74.0646 98.2653 74.3883 96.8633 74.8457C95.4477 75.3076 93.6456 75.9159 91.6738 76.5938C87.7297 77.9498 83.0987 79.5853 79.5 80.879L79.4971 80.8799C63.6859 86.6529 54.8107 96.7119 54.8105 109.284C54.8105 118.199 57.7409 125.173 63.3809 129.357C69.3052 133.755 77.7636 134.883 87.1465 132.648C96.0616 130.525 102.174 126.066 106.32 118.617C107.223 116.993 107.933 114.532 108.422 111.947C108.913 109.352 109.191 106.583 109.208 104.313C109.328 87.065 109.731 25.0202 109.736 24.2139V21.8282H120.841L120.831 107.969C118.805 134.694 98.5805 148.3 79.1602 148.3C78.6834 148.3 78.2155 148.295 77.75 148.277H77.748C69.0954 147.982 60.4217 144.858 53.916 138.67C47.4183 132.489 43.0479 123.218 43.0479 110.553V110.55Z" stroke="#7F7F7F" stroke-opacity="0.4" style="mix-blend-mode:luminosity"/>
<path d="M43.0479 110.55C43.0384 108.602 43.1902 106.627 43.4932 104.687L43.4922 104.686C44.4444 98.8783 46.6461 93.4719 50.042 88.585L50.0439 88.5821C54.3225 82.3314 58.4893 77.6509 64.0615 73.0176L65.125 72.1338H16.6182L17.3896 72.9717L26.2773 82.627V82.628C28.2185 84.7343 28.6944 87.7463 27.5059 90.2959L24.416 96.92L1.61719 69.917C1.006 69.1512 0.629063 68.2437 0.529297 67.295V67.293L0.50293 66.9346C0.473077 66.0997 0.657428 65.2722 1.04004 64.5118C1.47616 63.645 2.15854 62.9101 3.01367 62.3819H3.01465C3.8692 61.8526 4.85669 61.5619 5.87793 61.5391V61.5401H5.96973L101.773 62.4561C103.033 62.4682 104.151 63.0916 104.776 64.1104C105.399 65.1252 105.411 66.3374 104.813 67.3643V67.3653L101.056 73.8311L99.8271 73.96L99.8018 73.9629L99.7764 73.9688C99.3205 74.0646 98.2653 74.3883 96.8633 74.8457C95.4477 75.3076 93.6456 75.9159 91.6738 76.5938C87.7297 77.9498 83.0987 79.5853 79.5 80.879L79.4971 80.8799C63.6859 86.6529 54.8107 96.7119 54.8105 109.284C54.8105 118.199 57.7409 125.173 63.3809 129.357C69.3052 133.755 77.7636 134.883 87.1465 132.648C96.0616 130.525 102.174 126.066 106.32 118.617C107.223 116.993 107.933 114.532 108.422 111.947C108.913 109.352 109.191 106.583 109.208 104.313C109.328 87.065 109.731 25.0202 109.736 24.2139V21.8282H120.841L120.831 107.969C118.805 134.694 98.5805 148.3 79.1602 148.3C78.6834 148.3 78.2155 148.295 77.75 148.277H77.748C69.0954 147.982 60.4217 144.858 53.916 138.67C47.4183 132.489 43.0479 123.218 43.0479 110.553V110.55Z" stroke="#3D3D3D" stroke-opacity="0.5" style="mix-blend-mode:overlay"/>
<path d="M125 9.68427L122.094 6.93863L122.108 3.04365L118.012 3.05733L115.125 0.293442L112.238 3.05733L108.142 3.04365L108.157 6.93863L105.25 9.68427L108.157 12.4299L108.142 16.3249L112.238 16.3112L115.125 19.0751L118.012 16.3112L122.108 16.3249L122.094 12.4299L125 9.68427Z" fill="#08361F"/>
<path d="M117.666 3.41844L117.812 3.55809L118.014 3.55711L121.606 3.54442L121.594 6.937L121.593 7.15379L121.75 7.30223L124.272 9.68407L121.75 12.0669L121.593 12.2153L121.594 12.4321L121.606 15.8227L118.014 15.811H117.812L117.666 15.9497L115.124 18.3833L112.583 15.9497L112.438 15.811H112.237L108.643 15.8227L108.656 12.4321L108.657 12.2153L108.5 12.0669L105.978 9.68407L108.5 7.30223L108.657 7.15379L108.656 6.937L108.643 3.54442L112.237 3.55711L112.438 3.55809L112.583 3.41844L115.124 0.984848L117.666 3.41844Z" stroke="#7F7F7F" stroke-opacity="0.4" style="mix-blend-mode:luminosity"/>
<path d="M117.666 3.41844L117.812 3.55809L118.014 3.55711L121.606 3.54442L121.594 6.937L121.593 7.15379L121.75 7.30223L124.272 9.68407L121.75 12.0669L121.593 12.2153L121.594 12.4321L121.606 15.8227L118.014 15.811H117.812L117.666 15.9497L115.124 18.3833L112.583 15.9497L112.438 15.811H112.237L108.643 15.8227L108.656 12.4321L108.657 12.2153L108.5 12.0669L105.978 9.68407L108.5 7.30223L108.657 7.15379L108.656 6.937L108.643 3.54442L112.237 3.55711L112.438 3.55809L112.583 3.41844L115.124 0.984848L117.666 3.41844Z" stroke="#3D3D3D" stroke-opacity="0.5" style="mix-blend-mode:overlay"/>
</svg>
